<?xml version="1.0" encoding="utf-8"?>
<!-- Generator: Adobe Illustrator 28.0.0, SVG Export Plug-In . SVG Version: 6.00 Build 0)  -->
<svg version="1.1" id="Ebene_1" xmlns="http://www.w3.org/2000/svg" xmlns:xlink="http://www.w3.org/1999/xlink" x="0px" y="0px"
	 viewBox="0 0 562.55 610.18" style="enable-background:new 0 0 562.55 610.18;" xml:space="preserve">
<style type="text/css">
	.st0{fill:#FDE048;}
	.st1{fill:#FFFFFF;stroke:#222A51;stroke-width:3;stroke-linecap:round;stroke-linejoin:round;stroke-miterlimit:10;}
	.st2{fill:none;stroke:#222A51;stroke-width:3;stroke-linecap:round;stroke-linejoin:round;stroke-miterlimit:10;}
	.st3{fill:#FCE3E7;stroke:#222A51;stroke-width:3;stroke-linecap:round;stroke-linejoin:round;stroke-miterlimit:10;}
	.st4{fill:#57BCB2;}
	.st5{clip-path:url(#SVGID_00000049211543544067948110000005147311912698680738_);}
	.st6{fill:none;stroke:#FCE3E7;stroke-width:5;stroke-miterlimit:10;}
	.st7{fill:#57BCB2;stroke:#222A51;stroke-width:3;stroke-miterlimit:10;}
	.st8{fill:#EE7286;stroke:#222A51;stroke-width:3;stroke-linecap:round;stroke-linejoin:round;stroke-miterlimit:10;}
	.st9{fill:#222A51;}
	.st10{clip-path:url(#SVGID_00000111884099759392663490000010019536196512626076_);}
	.st11{fill:none;stroke:#FFFFFF;stroke-width:2;stroke-linecap:round;stroke-linejoin:round;stroke-miterlimit:10;}
	.st12{fill:#CFE8E6;}
	.st13{fill:#FCE3E7;}
	.st14{fill:#FCE3E7;stroke:#222A51;stroke-width:3;stroke-miterlimit:10;}
	.st15{fill:none;stroke:#FCE3E7;stroke-width:5;stroke-miterlimit:10;stroke-dasharray:12;}
	.st16{fill:none;stroke:#FCE3E7;stroke-width:2;stroke-linecap:round;stroke-linejoin:round;stroke-miterlimit:10;}
	.st17{fill:none;stroke:#222A51;stroke-width:1.5;stroke-linecap:round;stroke-linejoin:round;stroke-miterlimit:10;}
	.st18{fill:#222A51;stroke:#222A51;stroke-width:1.25;stroke-linecap:round;stroke-linejoin:round;stroke-miterlimit:10;}
</style>
<path class="st0" d="M376.64,239.98c0,0,17.89-18.76,58.47-20.95s75.05,18.33,89.89,58.04c14.84,39.71,19.2,135.71-12.65,193.31
	s-97.31,87.71-171.93,89.45c-64.01,1.5-150.17-25.9-173.93-94.6c-3.94-11.39-3.11-19.54-3.23-33.25
	c-0.14-15.72,14.26-37.48,25.31-50.18c36.5-41.97,97.3-18.13,133.09-69.38C364.42,251.18,376.64,239.98,376.64,239.98z"/>
<path class="st1" d="M213.83,380.52l100.64,29.36l19.71-10.84l55.55,14.18c0,0,4.88-18.86,7.84-37.28
	c4.91,0.33,8.93,0.31,11.36-0.25c6.55-1.5,6.05-10.33,6.2-16c0.08-3.2-0.6-28.11-2.52-37.67l-6.59,2.01l9.45-2.88l-2.91-12.07
	c0,0-8.29-24-15.85-35.49c-6.38-9.7-20.43-11.42-24.66-11.72l1.1,3.72c0,0-18.82,24.15-27.11,23.27
	c-6.23-0.66-10.12-3.46-10.04-7.42c0.09-3.93,4.13-9.02,4.13-9.02s0.36,0.07,0.37-2.49c-2.99,0.1-8.6,1.08-16.71,5.84
	c-10.7,6.27-13.96,17.45-20.95,26.62l-6.98,21.82l17.45,6.98l3.11-7.42l4.11,29.53c-7.17,2.14-14.73,8.15-14.73,8.15l-2.27,2.71
	l-41.35-12.06l-48.54,26.68"/>
<path class="st2" d="M199.86,497"/>
<polygon class="st3" points="298.85,324.98 280.15,348.64 291.49,360.85 316.42,323.76 "/>
<path class="st4" d="M384.43,412.25c-1.16,5.4-5.02,15.24-17.83,21.04c-18.33,8.29-43.64,1.75-43.64,1.75s-34.04,12.65-48,28.8
	c-13.96,16.15-42.52,58.9-44.95,69.82s-6.11,14.84-11.78,31.42c-5.67,16.58-7.85,16.58-20.51,25.31
	c-12.65,8.73-36.88-2.44-34.47-5.24c2.41-2.8,6.11-4.8,13.53-9.16s20.95-11.78,24.87-20.07s9.16-10.04,14.4-30.11
	c5.24-20.07,11.35-50.62,18.33-66.33c6.98-15.71,12.65-29.24,24.44-42.33c11.78-13.09,23.13-18.76,23.13-18.76"/>
<g>
	<defs>
		<path id="SVGID_1_" d="M216.06,525.8c-5.24,20.07-10.47,21.82-14.4,30.11c-3.93,8.29-17.45,15.71-24.87,20.07
			c-7.42,4.36-11.12,6.36-13.53,9.16c-2.41,2.8,21.82,13.96,34.47,5.24s14.84-8.73,20.51-25.31c5.67-16.58,9.36-20.5,11.78-31.42
			c0.39-1.75,1.45-4.31,3.01-7.45l-15.29-7.06C217.17,521.46,216.61,523.69,216.06,525.8z"/>
	</defs>
	<clipPath id="SVGID_00000023984341119925365190000014318225339061388431_">
		<use xlink:href="#SVGID_1_"  style="overflow:visible;"/>
	</clipPath>
	
		<g id="Ebene_6_00000046318856630857659650000001446118125584280500_" style="clip-path:url(#SVGID_00000023984341119925365190000014318225339061388431_);">
		<path class="st6" d="M242.15,545.94c0,0-43.43-25.87-70.53-54.96"/>
		<path class="st6" d="M235.13,557.42c0,0-43.43-25.87-70.53-54.96"/>
		<path class="st6" d="M228.63,567.42c0,0-43.43-25.87-70.53-54.96"/>
		<path class="st6" d="M221.99,578.75c0,0-43.43-25.87-70.53-54.96"/>
		<path class="st6" d="M214.86,590.89c0,0-47.69-31.11-74.8-60.21"/>
		<path class="st6" d="M208.52,601.71c0,0-49.07-30.12-76.17-59.21"/>
		<path class="st6" d="M200.48,615.41c0,0-49.92-31.72-77.03-60.8"/>
		<path class="st6" d="M193.28,627.68c0,0-50.81-30.2-77.92-59.29"/>
		<path class="st6" d="M185.01,641.79c0,0-43.43-25.87-70.53-54.96"/>
		<path class="st6" d="M177.26,654.99c0,0-43.43-25.87-70.53-54.96"/>
		<path class="st6" d="M169.51,668.2c0,0-43.43-25.87-70.53-54.96"/>
	</g>
</g>
<path class="st7" d="M247.86,439.4c0,0-36.65,30.98-45.38,48c-8.73,17.02-12.16,37.53-20.89,46.25
	c-8.73,8.73-17.89,20.51-27.49,22.25c-9.6,1.75-23.56-1.75-20.07-9.6s11.78-4.36,23.56-16.58c11.78-12.22,12.65-10.47,18.76-23.13
	c6.11-12.65,16.15-54.98,25.31-68.51c9.16-13.53,18.46-32.83,29.67-38.84c12.22-6.55,30.55-11.78,30.55-11.78"/>
<path class="st8" d="M243.49,531.04"/>
<path class="st8" d="M209.46,515.33"/>
<path class="st2" d="M199.86,497"/>
<polygon class="st8" points="213.18,379.02 262.18,352.08 365.02,382.08 314.47,409.87 213.77,380.5 "/>
<path class="st9" d="M279.6,399.7l-29.2-8.52c-5.97,2.1-13.22,4.94-19.07,8.07c-11.21,6.01-20.51,25.31-29.67,38.84
	c-5.84,8.63-12.04,28.96-17.35,45.85l14.28,11.99c1.19-2.89,2.47-5.76,3.89-8.53c6.27-12.22,26.93-31.64,38.09-41.62
	c4.79-10.15,10.04-19.5,18.26-28.64C267.37,407.65,275.68,402.06,279.6,399.7z"/>
<path class="st9" d="M334.18,399.03l-19.71,10.84L279.6,399.7c-3.92,2.36-12.24,7.94-20.78,17.44
	c-8.22,9.13-13.47,18.48-18.26,28.64c-2.08,4.4-4.07,8.94-6.18,13.69c-6.25,14.06-11.8,39.99-16.65,59.68l15.29,7.06
	c8.18-16.47,30.21-48.81,41.94-62.37c13.96-16.15,48-28.8,48-28.8s25.31,6.55,43.64-1.75c13.11-5.93,16.84-16.09,17.9-21.41
	L334.18,399.03z"/>
<g>
	<defs>
		<path id="SVGID_00000060010363729460856960000014122645921242885764_" d="M176.35,506.6c-6.11,12.65-6.98,10.91-18.76,23.13
			s-20.07,8.73-23.56,16.58c-3.49,7.85,10.47,11.35,20.07,9.6c9.6-1.75,18.76-13.53,27.49-22.25c7.31-7.31,10.9-22.86,17-37.72
			l-14.28-11.99C181.29,493.53,178.56,502.01,176.35,506.6z"/>
	</defs>
	<clipPath id="SVGID_00000072260221871935438460000014790541674677939869_">
		<use xlink:href="#SVGID_00000060010363729460856960000014122645921242885764_"  style="overflow:visible;"/>
	</clipPath>
	
		<g id="Ebene_6_00000156550305638104273370000001382868926463090080_" style="clip-path:url(#SVGID_00000072260221871935438460000014790541674677939869_);">
		<path class="st6" d="M242.15,545.94c0,0-43.43-25.87-70.53-54.96"/>
		<path class="st6" d="M235.13,557.42c0,0-43.43-25.87-70.53-54.96"/>
		<path class="st6" d="M228.63,567.42c0,0-43.43-25.87-70.53-54.96"/>
		<path class="st6" d="M221.99,578.75c0,0-43.43-25.87-70.53-54.96"/>
		<path class="st6" d="M214.86,590.89c0,0-47.69-31.11-74.8-60.21"/>
		<path class="st6" d="M208.52,601.71c0,0-49.07-30.12-76.17-59.21"/>
		<path class="st6" d="M200.48,615.41c0,0-49.92-31.72-77.03-60.8"/>
		<path class="st6" d="M193.28,627.68c0,0-50.81-30.2-77.92-59.29"/>
		<path class="st6" d="M185.01,641.79c0,0-43.43-25.87-70.53-54.96"/>
		<path class="st6" d="M177.26,654.99c0,0-43.43-25.87-70.53-54.96"/>
		<path class="st6" d="M169.51,668.2c0,0-43.43-25.87-70.53-54.96"/>
	</g>
</g>
<path class="st2" d="M247.86,439.4c0,0-36.65,30.98-45.38,48c-8.73,17.02-12.16,37.53-20.89,46.25
	c-8.73,8.73-17.89,20.51-27.49,22.25c-9.6,1.75-23.56-1.75-20.07-9.6s11.78-4.36,23.56-16.58c11.78-12.22,12.65-10.47,18.76-23.13
	c6.11-12.65,16.15-54.98,25.31-68.51c9.16-13.53,18.46-32.83,29.67-38.84c6.11-3.27,13.75-6.22,19.85-8.35"/>
<path class="st2" d="M384.43,412.25c-1.16,5.4-5.02,15.24-17.83,21.04c-18.33,8.29-43.64,1.75-43.64,1.75s-34.04,12.65-48,28.8
	c-13.96,16.15-42.52,58.9-44.95,69.82s-6.11,14.84-11.78,31.42c-5.67,16.58-7.85,16.58-20.51,25.31
	c-12.65,8.73-36.88-2.44-34.47-5.24c2.41-2.8,6.11-4.8,13.53-9.16s20.95-11.78,24.87-20.07s9.16-10.04,14.4-30.11
	c5.24-20.07,11.35-50.62,18.33-66.33c6.98-15.71,12.65-29.24,24.44-42.33"/>
<path class="st11" d="M279.6,399.7c-3.92,2.36-12.24,7.94-20.78,17.44c-8.22,9.13-13.47,18.48-18.26,28.64"/>
<path class="st12" d="M215.19,381.89l98.92,28.85l21.02-15.2l55.55,14.18c0,0,3.57-14.5,6.53-32.91c4.91,0.33,8.93,0.31,11.36-0.25
	c6.55-1.5,6.05-10.33,6.2-16c0.08-3.2-0.6-28.11-2.52-37.67l-6.59,2.01l9.45-2.88l-2.91-12.07c0,0-8.29-24-15.85-35.49
	c-6.38-9.7-20.43-11.42-24.66-11.72l1.1,3.72c0,0-18.82,24.15-27.11,23.27c-6.23-0.66-10.12-3.46-10.04-7.42
	c0.09-3.93,4.13-9.02,4.13-9.02s0.38,0.3,0.37-2.49c-2.99,0.1-5.25,0.99-13.36,5.75c-10.7,6.27-13.96,17.45-20.95,26.62l-6.98,21.82
	l14.1,7.07l3.11-7.42l4.11,29.53c-7.17,2.14-14.73,8.15-14.73,8.15l-2.27,2.71l-41.35-12.06l-47.21,25.95"/>
<g>
	<path class="st13" d="M322.67,263.25c0,0,0.02,0.06,0.05,0.16C325.33,265.28,322.67,263.25,322.67,263.25z"/>
	<path class="st13" d="M373,194.6c-3.35-5.38-14.98-19.35-21.82-21.67s-14.11,0.15-14.11,0.15s-22.55,0-30.69,8.15
		s-12.36,22.55-11.05,35.64c1.31,13.09,6.98,20.95,9.31,29.82c2.33,8.87,0,19.35-0.44,23.13c-0.44,3.78-2.33,4.65-1.02,4.65
		s7.56-0.44,15.85-4.36c4.69-2.22,3.92-5.87,3.69-6.67c-0.19-0.13-0.39-0.28-0.63-0.46c-0.74-0.53-1.51-1.15-2.28-1.8
		c5.12,3.89,12.73,8.64,20.61,7.62c5.72-0.75,11.01-2.56,15.27-5.71c1.11-0.1,4.37-0.43,10.04-1.12c7.13-0.87,19.49-9.75,19.49-9.75
		C387.98,230.82,376.35,199.98,373,194.6z"/>
</g>
<path class="st2" d="M377.07,310.67c1.75,2.18,4.22,9.16,4.22,9.16l4.07,10.47l30.11-9.16l-2.91-12.07c0,0-8.29-24-15.85-35.49
	c-7.56-11.49-25.89-11.78-25.89-11.78"/>
<path class="st2" d="M328.2,397.51l61.53,15.71c0,0,9.6-37.09,10.04-58.04"/>
<path class="st2" d="M340.5,269.92c-3,0.1-8.62,1.09-16.71,5.84c-10.7,6.27-13.96,17.45-20.95,26.62l-6.98,21.82l17.45,6.98
	l3.11-7.42l4.8,34.47l-7.42-1.75v3.49"/>
<path class="st12" d="M199.27,127.02c4.45-4.81,7.13-10.99,7.13-17.74c0-13.05-10.02-23.99-23.51-26.93
	c-2.22-11.09-14-19.55-28.2-19.55c-13.3,0-24.48,7.42-27.67,17.48c-15.52,0.44-27.97,13.15-27.97,28.78
	c0,15.91,12.89,28.8,28.8,28.8c2.38,0,4.69-0.29,6.9-0.84c3.36,2.91,8.4,4.77,14.04,4.77c6.77,0,12.66-2.67,15.84-6.63
	c3.42,1.18,7.12,1.83,11,1.83c5.41,0,10.49-1.26,14.9-3.47c11.72,2.7,19.79-3.95,19.79-3.95
	C205.86,129.57,202.14,128.42,199.27,127.02z"/>
<path class="st2" d="M196.27,131.83c4.45-4.81,7.13-10.99,7.13-17.74c0-13.05-10.02-23.99-23.51-26.93
	c-2.22-11.09-14-19.55-28.2-19.55c-13.3,0-24.48,7.42-27.67,17.48c-15.52,0.44-27.97,13.15-27.97,28.78
	c0,15.91,12.89,28.8,28.8,28.8c2.38,0,4.69-0.29,6.9-0.84c3.36,2.91,8.4,4.77,14.04,4.77c6.77,0,12.66-2.67,15.84-6.63
	c3.42,1.18,7.12,1.83,11,1.83c5.41,0,10.49-1.26,14.9-3.47c11.72,2.7,19.79-3.95,19.79-3.95
	C202.86,134.38,199.14,133.22,196.27,131.83z"/>
<path class="st12" d="M466.86,90.36c-7.01,0.75-14.01-1.08-18.71-2.78c3.29-3.6,5.18-7.79,5.18-12.27c0-5.72-3.08-10.97-8.21-15.11
	c0.23-1.04,0.35-2.11,0.35-3.22c0-7.46-5.5-13.69-12.82-15.16c-1.65-11.46-15.6-20.41-32.56-20.41c-13.35,0-24.83,5.55-29.92,13.49
	c-1.55-0.26-3.15-0.4-4.77-0.4c-16.51,0-29.89,14.07-29.89,31.42c0,17.35,13.38,31.42,29.89,31.42c7.63,0,14.59-3.01,19.87-7.96
	c6.81,6.14,17.94,10.14,30.53,10.14c8.56,0,16.45-1.85,22.76-4.97C455.43,94.28,477.4,89.23,466.86,90.36z"/>
<path class="st2" d="M460.86,93.36c-7.01,0.75-14.01-1.08-18.71-2.78c3.29-3.6,5.18-7.79,5.18-12.27c0-5.72-3.08-10.97-8.21-15.11
	c0.23-1.04,0.35-2.11,0.35-3.22c0-7.46-5.5-13.69-12.82-15.16c-1.65-11.46-15.6-20.41-32.56-20.41c-13.35,0-24.83,5.55-29.92,13.49
	c-1.55-0.26-3.15-0.4-4.77-0.4c-16.51,0-29.89,14.07-29.89,31.42c0,17.35,13.38,31.42,29.89,31.42c7.63,0,14.59-3.01,19.87-7.96
	c6.81,6.14,17.94,10.14,30.53,10.14c8.56,0,16.45-1.85,22.76-4.97C449.43,97.28,471.4,92.23,460.86,93.36z"/>
<polygon class="st2" points="120.76,180.21 119.65,181.9 145.09,179.99 140.97,164.05 "/>
<polygon class="st2" points="138.29,153.67 138.16,153.87 138.35,153.92 "/>
<polygon class="st2" points="118.55,181.98 119.65,181.9 120.76,180.21 "/>
<polygon class="st1" points="133.03,133.31 138.29,153.67 138.35,153.92 219.61,174.4 219.81,174.39 "/>
<polygon class="st1" points="138.35,153.92 138.16,153.87 120.76,180.21 140.97,164.05 141.12,163.92 216.96,174.6 219.61,174.4 "/>
<polygon class="st1" points="216.96,174.6 141.12,163.92 140.97,164.05 145.09,179.99 152.02,206.83 219.56,174.97 "/>
<g>
	<path class="st14" d="M313.87,374.46c0.41-0.58,0.66-0.95,0.66-0.95C314.32,373.77,314.1,374.1,313.87,374.46z"/>
	<path class="st14" d="M309.29,370.02l2.47-3.05C311.76,366.96,309.58,369,309.29,370.02z"/>
	<path class="st14" d="M308.13,363.76l-4.04,7.2c0.18-0.06,0.26-0.08,0.26-0.08L308.13,363.76z"/>
	<path class="st3" d="M412.61,322.02l-20.19,6.15c0.96,2.05,1.72,4.37,2.11,6.95c0.28,1.88,2.18,20.51,2.18,20.51l-55.56,0.29
		c0,0-8.73-3.78-16.73-3.35s-18.62,8.87-18.62,8.87l-6.84,8.15c0,0-2.47,4.51,0.87,3.05c2.47-1.07,3.75-1.51,4.25-1.67l4.04-7.2
		l-3.78,7.13c0,0-0.09,0.02-0.26,0.08l-0.61,1.09l-1.31,5.24c0,0-1.16,3.05,0.29,4.22c1.52,1.21,1.89-0.44,1.89-0.44l4.95-11.05
		c0.29-1.02,2.47-3.05,2.47-3.05l-2.47,3.05c-0.29,1.02-4.8,11.2-4.8,11.78c0,0.58,0.58,2.62,2.18,1.75c1.28-0.7,5.55-6.72,7.2-9.09
		c0.23-0.36,0.45-0.69,0.66-0.95c0,0-0.25,0.37-0.66,0.95c-1.52,2.42-3.31,6.76-3.56,9.67c-0.29,3.35-0.29,4.65,1.31,5.24
		c1.6,0.58,4.8-6.98,6.4-9.02c1.6-2.04,4.22-2.76,10.04-5.38c5.82-2.62,12.36-8,12.36-8s55.85,11.64,68.51,8.73
		c6.55-1.5,6.05-10.33,6.2-16C415.21,356.49,414.53,331.58,412.61,322.02z"/>
</g>
<path class="st2" d="M340.13,272.42c0,0-4.04,5.09-4.13,9.02c-0.09,3.96,3.81,6.76,10.04,7.42"/>
<path class="st2" d="M396.71,273.58c-7.56-11.49-25.89-11.78-25.89-11.78"/>
<path class="st2" d="M328.2,397.51l61.53,15.71c0,0,9.6-37.09,10.04-58.04"/>
<path class="st2" d="M323.78,275.76c-10.7,6.27-13.96,17.45-20.95,26.62l-6.98,21.82"/>
<g>
	<path class="st14" d="M313.87,374.46c0.41-0.58,0.66-0.95,0.66-0.95C314.32,373.77,314.1,374.1,313.87,374.46z"/>
	<path class="st14" d="M309.29,370.02l2.47-3.05C311.76,366.96,309.58,369,309.29,370.02z"/>
	<path class="st14" d="M308.13,363.76l-4.04,7.2c0.18-0.06,0.26-0.08,0.26-0.08L308.13,363.76z"/>
</g>
<polyline class="st2" points="214.97,378.04 262.18,352.08 365.02,382.08 314.47,409.87 215.55,381.02 "/>
<polyline class="st8" points="213.64,378.77 262.18,352.08 365.02,382.08 314.47,409.87 213.83,380.52 "/>
<path class="st3" d="M412.61,322.02l-20.19,6.15c0.96,2.05,1.72,4.37,2.11,6.95c0.28,1.88,2.18,20.51,2.18,20.51l-55.56,0.29
	c0,0-8.73-3.78-16.73-3.35s-18.62,8.87-18.62,8.87l-6.84,8.15c0,0-2.47,4.51,0.87,3.05c2.47-1.07,3.75-1.51,4.25-1.67l4.04-7.2
	l-3.78,7.13c0,0-0.09,0.02-0.26,0.08l-0.61,1.09l-1.31,5.24c0,0-1.16,3.05,0.29,4.22c1.52,1.21,1.89-0.44,1.89-0.44l4.95-11.05
	c0.29-1.02,2.47-3.05,2.47-3.05l-2.47,3.05c-0.29,1.02-4.8,11.2-4.8,11.78c0,0.58,0.58,2.62,2.18,1.75c1.28-0.7,5.55-6.72,7.2-9.09
	c0.23-0.36,0.45-0.69,0.66-0.95c0,0-0.25,0.37-0.66,0.95c-1.52,2.42-3.31,6.76-3.56,9.67c-0.29,3.35-0.29,4.65,1.31,5.24
	c1.6,0.58,4.8-6.98,6.4-9.02c1.6-2.04,4.22-2.76,10.04-5.38c5.82-2.62,12.36-8,12.36-8s55.85,11.64,68.51,8.73
	c6.55-1.5,6.05-10.33,6.2-16C415.21,356.49,414.53,331.58,412.61,322.02z"/>
<path class="st8" d="M305.04,407.1l-90.21-26.79c-1.57-0.46-2.78-1.7-3.22-3.28l-13.22-47.66c-1-3.59,2.35-6.87,5.92-5.81
	l90.21,26.79c1.57,0.46,2.78,1.7,3.22,3.28l13.22,47.66C311.95,404.88,308.61,408.16,305.04,407.1z"/>
<path class="st15" d="M82.47,198.74c0,0-47.78,21.6-49.09,71.35c-1.31,49.75,42.55,66.76,66.11,54.98
	c23.56-11.78,12.44-53.67-16.36-53.67S36,322.45,44.51,370.24"/>
<line class="st16" x1="366.44" y1="240.43" x2="363.5" y2="245.27"/>
<path class="st3" d="M340.42,268.87c-0.05,3.77-0.29,3.64-0.29,3.64s-4.04,5.09-4.13,9.02c-0.09,3.96,3.81,6.76,10.04,7.42
	c8.29,0.87,27.11-23.27,27.11-23.27l-1.54-5.23"/>
<path class="st17" d="M330.07,250.05c0,0,2.69,4.7,8.95,1.12"/>
<path class="st17" d="M334.38,257.12c0,0,1.25,2.65,4.74,2.37c3.49-0.28,5.99-1.53,7.67-3.76c1.67-2.23,1.81-3.49,1.81-3.49"/>
<g>
	
		<ellipse transform="matrix(0.9171 -0.3987 0.3987 0.9171 -69.4891 148.392)" class="st9" cx="322.03" cy="241.26" rx="1.85" ry="4.99"/>
	
		<ellipse transform="matrix(0.9171 -0.3987 0.3987 0.9171 -66.1111 156.0075)" class="st9" cx="342.02" cy="236.95" rx="1.85" ry="4.99"/>
	<path class="st18" d="M311.52,233.84c0,0,0.98-2.93,4.88-4.04c3.9-1.12,5.72,0.84,5.72,0.84s-3.07-1.12-5.3-0.28
		C314.59,231.19,311.52,233.84,311.52,233.84z"/>
	<path class="st18" d="M334.52,226.59c0,0,1.12-4.18,4.04-5.3c2.93-1.12,6.55,0.84,6.55,0.84l1.25,1.12c0,0-2.51-1.95-5.3-1.67
		C338.29,221.85,336.33,223.53,334.52,226.59z"/>
</g>
<g>
	<path class="st4" d="M325.19,262.83c0,0,0.02,0.06,0.05,0.16C327.85,264.86,325.19,262.83,325.19,262.83z"/>
	<path class="st4" d="M375.52,194.18c-3.35-5.38-14.98-19.35-21.82-21.67s-14.11,0.15-14.11,0.15s-22.55,0-30.69,8.15
		s-12.36,22.55-11.05,35.64c1.31,13.09,4.71,17.65,7.04,26.52c2.33,8.87,2.27,22.64,1.83,26.42c-0.44,3.78-2.67,4.62-1.41,4.25
		c4.2-1.26,9.5-4.52,18.07-8.19c2.94-1.26-0.4-0.46-0.63-1.26c-0.19-0.13,2.11-1.46,1.87-1.63c-0.36-0.26-2.78,0.44-4.8-1.38
		c-2.1-1.88-5.28-5.7-5.68-6.03c2.56,1.94-9.1-1.64-9.87-19.33c-0.05-1.14,2.02-4.47,2.25-5.56c1.44-6.95,8.02-12.87,13.69-19.34
		c7.17-8.19,10.75-16.33,12.81-16.6c5.72-0.75,7.18,5.49,18.52,11.89c0.21-0.02,3.67,2.69,10.71,11.97c2.44,3.22,5.4-3.56,7.14-2.1
		c2.04,1.7,4.37,6.13,2.94,9.45c-0.66,1.54,2.33,2.7,0.7,4.41c-4.19,4.4-4.05,9.24-6.14,14.08c-1.52,3.51-1.29,7.11-2.47,9.96
		c-1.89,4.58-5.28,5.79-4.91,5.8c17.45,0.58,27.1-14.91,27.1-14.91C389.37,223.46,378.87,199.56,375.52,194.18z"/>
</g>
<polyline class="st1" points="310.35,251.11 307.69,270.19 321.26,262.72 "/>
<path class="st2" d="M303.55,236.93c0,0,8.07,17.67,12.65,21.38c4.58,3.71,14.18,11.78,24.22,10.47
	c10.04-1.31,18.76-5.89,22.91-15.27s3.42-15.85,3.42-15.85s0.44,5.53-2.33,13.53s-9.16,11.93-9.16,11.93s3.35-0.29,10.47-1.16
	c7.13-0.87,19.49-9.75,19.49-9.75c2.76-21.38-8.87-52.22-12.22-57.6c-3.35-5.38-14.98-19.35-21.82-21.67
	c-6.84-2.33-14.11,0.15-14.11,0.15s-22.55,0-30.69,8.15c-8.15,8.15-12.36,22.55-11.05,35.64s6.98,20.95,9.31,29.82
	s0,19.35-0.44,23.13c-0.44,3.78-2.33,4.65-1.02,4.65c1.31,0,7.56-0.44,15.85-4.36c1.7-0.81,6.52-1.93,7.07-2.91
	c1.16-2.07-3.44-3.93-3.44-3.93s3.05,2.33-0.58-0.29c-3.64-2.62-8.15-7.27-9.02-8c-0.87-0.73-9.31-17.02-9.31-17.02
	s-0.22-1.02-0.29-1.89c-0.07-0.87,1.75-8.29,4.22-13.09c2.47-4.8,25.31-28.65,25.31-28.65s19.35,12.36,24.58,18.18
	s5.82,8.29,5.82,8.29s0.87-2.91,3.49-3.93c2.62-1.02,5.24,0.15,6.11,3.78c0.87,3.64,0.44,7.42-1.89,10.76
	c-2.33,3.35-4.8,3.35-4.8,3.35"/>
<polygon class="st1" points="365.85,231.52 357.64,250.15 376.03,247.21 "/>
<line class="st16" x1="313.08" y1="259.55" x2="311.82" y2="263.33"/>
</svg>
