<svg width="935" height="935" viewBox="0 0 935 935" fill="none" xmlns="http://www.w3.org/2000/svg">
<rect width="935" height="935" fill="white"/>
<g clip-path="url(#clip0_10_2)">
<path d="M368.275 844C437.399 844 493.5 787.851 493.5 718.667V593.333H368.275C299.151 593.333 243.05 649.483 243.05 718.667C243.05 787.851 299.151 844 368.275 844Z" fill="#0ACF83"/>
<path d="M243.05 468C243.05 398.816 299.151 342.667 368.275 342.667H493.5V593.333H368.275C299.151 593.333 243.05 537.184 243.05 468Z" fill="#A259FF"/>
<path d="M243.05 217.333C243.05 148.149 299.151 92 368.275 92H493.5V342.667H368.275C299.151 342.667 243.05 286.517 243.05 217.333Z" fill="#F24E1E"/>
<path d="M493.5 92H618.725C687.849 92 743.95 148.149 743.95 217.333C743.95 286.517 687.849 342.667 618.725 342.667H493.5V92Z" fill="#FF7262"/>
<path d="M743.95 468C743.95 537.184 687.849 593.333 618.725 593.333C549.601 593.333 493.5 537.184 493.5 468C493.5 398.816 549.601 342.667 618.725 342.667C687.849 342.667 743.95 398.816 743.95 468Z" fill="#1ABCFE"/>
</g>
<defs>
<clipPath id="clip0_10_2">
<rect width="501" height="752" fill="white" transform="translate(243 92)"/>
</clipPath>
</defs>
</svg>
